<?xml version="1.0" encoding="UTF-8"?>
<!DOCTYPE svg PUBLIC "-//W3C//DTD SVG 1.1//EN" "http://www.w3.org/Graphics/SVG/1.1/DTD/svg11.dtd">
<svg xmlns="http://www.w3.org/2000/svg" version="1.1" width="537px" height="311px" style="shape-rendering:geometricPrecision; text-rendering:geometricPrecision; image-rendering:optimizeQuality; fill-rule:evenodd; clip-rule:evenodd" xmlns:xlink="http://www.w3.org/1999/xlink">
<g><path style="opacity:0.956" fill="#f9f8f9" d="M 335.5,-0.5 C 338.833,-0.5 342.167,-0.5 345.5,-0.5C 348.641,0.321287 351.975,0.821287 355.5,1C 357.286,1.78451 358.786,2.95118 360,4.5C 360.333,10.1667 360.667,15.8333 361,21.5C 361.981,15.8964 364.481,11.0631 368.5,7C 373.699,3.98875 378.866,4.15542 384,7.5C 389.112,4.78733 393.778,5.45399 398,9.5C 399.416,14.1335 398.583,18.4669 395.5,22.5C 398.291,24.7888 400.958,27.2888 403.5,30C 420.907,21.638 436.073,24.8047 449,39.5C 456.296,51.2013 456.963,63.2013 451,75.5C 448.408,78.7621 445.241,81.2621 441.5,83C 447.226,85.3925 451.726,89.2258 455,94.5C 455.169,101.856 455.669,109.189 456.5,116.5C 475.968,119.95 494.968,125.117 513.5,132C 523.505,135.528 531.171,141.695 536.5,150.5C 536.5,153.167 536.5,155.833 536.5,158.5C 534.538,162.984 531.538,166.817 527.5,170C 505.114,182.405 481.114,189.905 455.5,192.5C 455.667,222.502 455.5,252.502 455,282.5C 451.147,288.694 445.647,292.86 438.5,295C 419.227,300.712 399.561,304.379 379.5,306C 359.696,307.752 340.029,309.252 320.5,310.5C 286.167,310.5 251.833,310.5 217.5,310.5C 185.159,308.938 152.826,305.771 120.5,301C 106.958,299.268 94.6247,294.601 83.5,287C 82.5399,285.581 81.7065,284.081 81,282.5C 80.5,252.502 80.3334,222.502 80.5,192.5C 54.8861,189.905 30.8861,182.405 8.5,170C 4.46219,166.817 1.46219,162.984 -0.5,158.5C -0.5,155.833 -0.5,153.167 -0.5,150.5C 4.82878,141.695 12.4954,135.528 22.5,132C 41.0317,125.117 60.0317,119.95 79.5,116.5C 80.3313,109.189 80.8313,101.856 81,94.5C 82.4578,92.04 84.2911,89.8734 86.5,88C 83.6367,86.6365 81.6367,84.4698 80.5,81.5C 87.8977,59.4737 95.3977,37.4737 103,15.5C 103.465,14.0692 104.299,12.9025 105.5,12C 113.727,9.75299 122.061,8.41966 130.5,8C 131.5,8.83333 132.5,9.66667 133.5,10.5C 134.785,14.6962 136.452,18.6962 138.5,22.5C 139.086,22.2907 139.586,21.9574 140,21.5C 138.761,10.7387 143.594,5.90539 154.5,7C 165.637,3.32722 170.637,7.16055 169.5,18.5C 171.484,18.3832 173.15,19.0499 174.5,20.5C 187.3,13.2921 200.3,12.7921 213.5,19C 214.667,20.1667 215.833,21.3333 217,22.5C 227.88,12.325 240.38,9.82501 254.5,15C 257.579,16.2477 260.246,18.0811 262.5,20.5C 268.895,14.3141 276.562,11.6474 285.5,12.5C 294.995,11.5095 302.829,14.5095 309,21.5C 315.213,14.9594 322.713,12.626 331.5,14.5C 331.335,10.8183 331.501,7.15159 332,3.5C 332.69,1.64977 333.856,0.316435 335.5,-0.5 Z M 260.5,63.5 C 261.627,64.1217 262.627,64.955 263.5,66C 261.5,66.6667 259.5,66.6667 257.5,66C 258.942,65.6232 259.942,64.7899 260.5,63.5 Z M 118.5,72.5 C 119.5,72.5 120.5,72.5 121.5,72.5C 121.5,73.8333 121.5,75.1667 121.5,76.5C 118.786,76.75 116.119,76.9167 113.5,77C 114.337,75.9887 114.67,74.8221 114.5,73.5C 116.099,73.7678 117.432,73.4345 118.5,72.5 Z M 77.5,154.5 C 78.5,154.5 79.5,154.5 80.5,154.5C 80.5,161.5 80.5,168.5 80.5,175.5C 68.4721,174.101 57.1387,170.601 46.5,165C 56.5714,160.366 66.9047,156.866 77.5,154.5 Z M 455.5,154.5 C 467.358,156.286 478.691,159.786 489.5,165C 478.861,170.601 467.528,174.101 455.5,175.5C 455.5,168.5 455.5,161.5 455.5,154.5 Z"/></g>
<g><path style="opacity:1" fill="#a6cce4" d="M 338.5,6.5 C 338.666,13.175 338.5,19.8417 338,26.5C 337.283,25.9558 336.783,25.2891 336.5,24.5C 337.167,18.5 337.833,12.5 338.5,6.5 Z"/></g>
<g><path style="opacity:1" fill="#0d71b5" d="M 338.5,6.5 C 343.482,7.05341 348.482,7.38674 353.5,7.5C 353.5,26.8333 353.5,46.1667 353.5,65.5C 352.167,65.5 350.833,65.5 349.5,65.5C 345.833,65.5 342.167,65.5 338.5,65.5C 338.657,64.1266 338.49,62.7932 338,61.5C 327.382,68.2984 318.715,66.2984 312,55.5C 309.196,47.5887 308.863,39.5887 311,31.5C 317.008,19.7847 325.508,17.4514 336.5,24.5C 336.783,25.2891 337.283,25.9558 338,26.5C 338.5,19.8417 338.666,13.175 338.5,6.5 Z"/></g>
<g><path style="opacity:1" fill="#71aed5" d="M 353.5,7.5 C 354.497,26.9929 354.83,46.6596 354.5,66.5C 352.585,66.7845 350.919,66.4511 349.5,65.5C 350.833,65.5 352.167,65.5 353.5,65.5C 353.5,46.1667 353.5,26.8333 353.5,7.5 Z"/></g>
<g><path style="opacity:1" fill="#1d72b6" d="M 373.5,11.5 C 377.346,12.3328 381.179,13.3328 385,14.5C 387.27,13.1401 389.77,12.4734 392.5,12.5C 391.672,19.1607 388.006,21.6607 381.5,20C 379.61,18.8877 377.61,18.0544 375.5,17.5C 373.675,18.6511 371.675,19.3178 369.5,19.5C 369.343,18.1266 369.51,16.7932 370,15.5C 371.376,14.2949 372.542,12.9616 373.5,11.5 Z"/></g>
<g><path style="opacity:1" fill="#1773b6" d="M 159.5,13.5 C 160.5,13.5 161.5,13.5 162.5,13.5C 162.183,17.7016 162.517,21.7016 163.5,25.5C 165.5,25.5 167.5,25.5 169.5,25.5C 169.5,28.8333 169.5,32.1667 169.5,35.5C 167.208,35.2436 165.041,35.5769 163,36.5C 162.333,42.8333 162.333,49.1667 163,55.5C 165.041,56.4231 167.208,56.7564 169.5,56.5C 169.793,60.4367 169.46,64.27 168.5,68C 164.751,69.2506 160.917,70.0839 157,70.5C 151.652,70.4786 148.319,67.812 147,62.5C 146.5,54.5069 146.334,46.5069 146.5,38.5C 144.833,38.5 143.167,38.5 141.5,38.5C 141.5,35.1667 141.5,31.8333 141.5,28.5C 143.167,28.5 144.833,28.5 146.5,28.5C 146.5,23.8333 146.5,19.1667 146.5,14.5C 150.857,14.4135 155.19,14.0802 159.5,13.5 Z"/></g>
<g><path style="opacity:1" fill="#8abcdc" d="M 159.5,13.5 C 160.568,12.5655 161.901,12.2322 163.5,12.5C 163.5,16.8333 163.5,21.1667 163.5,25.5C 162.517,21.7016 162.183,17.7016 162.5,13.5C 161.5,13.5 160.5,13.5 159.5,13.5 Z"/></g>
<g><path style="opacity:1" fill="#1272b6" d="M 122.5,14.5 C 125.079,14.0833 127.246,14.75 129,16.5C 134.601,33.8026 140.101,51.136 145.5,68.5C 145.182,69.6473 144.516,70.4806 143.5,71C 138.178,71.6841 132.844,72.1841 127.5,72.5C 127.326,70.139 126.993,67.8056 126.5,65.5C 120.618,65.3433 114.951,66.3433 109.5,68.5C 108.067,71.333 107.4,74.333 107.5,77.5C 101.145,78.3383 94.8119,79.3383 88.5,80.5C 94.8216,59.7016 101.655,39.035 109,18.5C 113.504,16.8982 118.004,15.5648 122.5,14.5 Z"/></g>
<g><path style="opacity:1" fill="#1372b6" d="M 263.5,53.5 C 263.5,51.8333 263.5,50.1667 263.5,48.5C 263.724,44.4384 265.724,41.605 269.5,40C 276.167,38.3333 282.833,36.6667 289.5,35C 291.042,31.2759 289.709,29.4426 285.5,29.5C 282.246,29.7604 280.246,31.4271 279.5,34.5C 274.833,34.5 270.167,34.5 265.5,34.5C 265.5,33.1667 265.5,31.8333 265.5,30.5C 267.257,25.5746 270.59,22.0746 275.5,20C 282.167,19.3333 288.833,19.3333 295.5,20C 300.935,21.7694 304.768,25.2694 307,30.5C 307.189,41.2131 307.689,51.8798 308.5,62.5C 303.208,63.4948 297.875,63.8282 292.5,63.5C 292.785,61.712 292.452,60.0453 291.5,58.5C 289.851,60.9954 287.517,62.4954 284.5,63C 280.167,63.6667 275.833,63.6667 271.5,63C 266.799,61.4716 264.132,58.3049 263.5,53.5 Z"/></g>
<g><path style="opacity:1" fill="#1172b6" d="M 247.5,45.5 C 252.167,45.5 256.833,45.5 261.5,45.5C 261.5,46.8333 261.5,48.1667 261.5,49.5C 258.089,59.8963 250.756,64.8963 239.5,64.5C 221.395,62.6858 214.228,52.6858 218,34.5C 224.411,21.2158 234.911,16.3824 249.5,20C 257.399,22.7285 261.733,28.2285 262.5,36.5C 257.167,36.5 251.833,36.5 246.5,36.5C 246.703,34.6096 246.037,33.1096 244.5,32C 240.058,30.6217 236.558,31.7884 234,35.5C 233.333,39.1667 233.333,42.8333 234,46.5C 235.211,51.7103 238.377,53.5437 243.5,52C 245.628,50.2082 246.961,48.0416 247.5,45.5 Z"/></g>
<g><path style="opacity:1" fill="#1272b6" d="M 187.5,21.5 C 192.844,21.334 198.177,21.5006 203.5,22C 208.188,22.9195 211.688,25.4195 214,29.5C 214.333,40.1667 214.667,50.8333 215,61.5C 215.692,62.0253 216.192,62.6919 216.5,63.5C 210.872,64.4954 205.206,64.8288 199.5,64.5C 199.649,63.448 199.483,62.448 199,61.5C 191.009,68.2493 182.509,69.0826 173.5,64C 167.929,53.7908 170.596,46.4575 181.5,42C 187.209,40.7001 192.709,38.8668 198,36.5C 198.684,35.2161 198.517,34.0495 197.5,33C 191.893,31.0714 188.56,32.9047 187.5,38.5C 182.463,38.4126 177.463,38.746 172.5,39.5C 172.588,34.9872 174.088,30.9872 177,27.5C 180.351,25.0795 183.851,23.0795 187.5,21.5 Z"/></g>
<g><path style="opacity:1" fill="#1071b6" d="M 366.5,25.5 C 379.322,22.7884 390.155,26.1218 399,35.5C 400.29,46.7365 400.957,58.0698 401,69.5C 402.784,70.6675 402.784,71.6675 401,72.5C 396.248,71.2183 391.415,70.385 386.5,70C 385.773,68.6012 385.273,67.1012 385,65.5C 381.88,68.7076 378.046,70.0409 373.5,69.5C 365.461,69.6261 359.961,65.9595 357,58.5C 355.142,51.3826 357.642,46.5492 364.5,44C 371.136,42.8872 377.803,42.0538 384.5,41.5C 384.406,37.757 382.406,35.757 378.5,35.5C 375.638,36.9521 372.971,38.6188 370.5,40.5C 366.535,39.7261 362.535,39.3927 358.5,39.5C 358.214,33.1252 360.88,28.4585 366.5,25.5 Z"/></g>
<g><path style="opacity:0.987" fill="#f7fafc" d="M 328.5,33.5 C 332.793,32.5356 335.96,33.8689 338,37.5C 338.667,41.5 338.667,45.5 338,49.5C 336.309,53.2127 333.475,54.3794 329.5,53C 328,52.1667 326.833,51 326,49.5C 325.333,45.1667 325.333,40.8333 326,36.5C 327.045,35.6266 327.878,34.6266 328.5,33.5 Z"/></g>
<g><path style="opacity:1" fill="#1172b6" d="M 413.5,32.5 C 437.302,30.8038 448.802,41.8038 448,65.5C 444.187,75.9956 436.687,80.1623 425.5,78C 407.6,72.7495 400.433,60.9162 404,42.5C 406.022,37.98 409.189,34.6467 413.5,32.5 Z"/></g>
<g><path style="opacity:1" fill="#84b8da" d="M 265.5,30.5 C 265.5,31.8333 265.5,33.1667 265.5,34.5C 270.167,34.5 274.833,34.5 279.5,34.5C 274.695,35.4872 269.695,35.8205 264.5,35.5C 264.216,33.5853 264.549,31.9187 265.5,30.5 Z"/></g>
<g><path style="opacity:1" fill="#eff5f9" d="M 117.5,29.5 C 118.167,31.8333 118.833,34.1667 119.5,36.5C 119.945,42.061 121.279,47.3943 123.5,52.5C 120.32,53.4367 117.153,54.4367 114,55.5C 113.5,55.1667 113,54.8333 112.5,54.5C 115.594,46.457 117.261,38.1237 117.5,29.5 Z"/></g>
<g><path style="opacity:1" fill="#84b7da" d="M 117.5,29.5 C 117.56,28.9569 117.893,28.6236 118.5,28.5C 119.48,31.0865 119.813,33.7531 119.5,36.5C 118.833,34.1667 118.167,31.8333 117.5,29.5 Z"/></g>
<g><path style="opacity:1" fill="#88badb" d="M 247.5,45.5 C 252.305,44.5128 257.305,44.1795 262.5,44.5C 262.232,46.099 262.566,47.4324 263.5,48.5C 263.5,50.1667 263.5,51.8333 263.5,53.5C 262.833,52.1667 262.167,50.8333 261.5,49.5C 261.5,48.1667 261.5,46.8333 261.5,45.5C 256.833,45.5 252.167,45.5 247.5,45.5 Z"/></g>
<g><path style="opacity:1" fill="#f2f7fa" d="M 288.5,44.5 C 289.5,44.5 290.5,44.5 291.5,44.5C 291.666,52.0978 287.999,54.9312 280.5,53C 278.789,51.8668 278.289,50.3668 279,48.5C 281.968,46.4889 285.134,45.1556 288.5,44.5 Z"/></g>
<g><path style="opacity:0.996" fill="#f9fbfc" d="M 422.5,44.5 C 426.683,43.8456 429.516,45.5123 431,49.5C 431.667,53.8333 431.667,58.1667 431,62.5C 429.334,65.3788 426.834,66.2121 423.5,65C 421.951,63.786 420.785,62.286 420,60.5C 419.333,56.1667 419.333,51.8333 420,47.5C 421.045,46.6266 421.878,45.6266 422.5,44.5 Z"/></g>
<g><path style="opacity:1" fill="#f1f7fa" d="M 197.5,46.5 C 199.81,49.2585 199.477,52.0919 196.5,55C 193.341,56.5612 190.174,56.7279 187,55.5C 186.175,53.2992 186.675,51.4659 188.5,50C 191.731,49.1389 194.731,47.9722 197.5,46.5 Z"/></g>
<g><path style="opacity:1" fill="#f0f6fa" d="M 383.5,50.5 C 386.058,53.3276 385.724,56.1609 382.5,59C 379.007,60.0037 375.841,59.5037 373,57.5C 372.28,55.8876 372.446,54.3876 373.5,53C 376.952,52.1153 380.286,51.282 383.5,50.5 Z"/></g>
<g><path style="opacity:1" fill="#0f6bb4" d="M 280.5,72.5 C 290.681,72.1726 300.681,72.506 310.5,73.5C 303.825,73.3337 297.158,73.5004 290.5,74C 303.841,72.4351 316.175,75.1018 327.5,82C 287.836,81.3397 248.17,81.3397 208.5,82C 213.167,79.6667 217.833,77.3333 222.5,75C 242.167,74.6667 261.833,74.3333 281.5,74C 280.944,73.6174 280.611,73.1174 280.5,72.5 Z"/></g>
<g><path style="opacity:1" fill="#1b66b0" d="M 280.5,72.5 C 280.611,73.1174 280.944,73.6174 281.5,74C 261.833,74.3333 242.167,74.6667 222.5,75C 217.833,77.3333 213.167,79.6667 208.5,82C 248.17,81.3397 287.836,81.3397 327.5,82C 316.175,75.1018 303.841,72.4351 290.5,74C 297.158,73.5004 303.825,73.3337 310.5,73.5C 351.306,73.5385 391.64,77.7052 431.5,86C 438.094,87.8568 443.927,91.0234 449,95.5C 449.5,102.826 449.666,110.159 449.5,117.5C 446.391,117.736 443.391,117.403 440.5,116.5C 440.666,112.486 440.499,108.486 440,104.5C 435.069,99.7842 429.236,96.7842 422.5,95.5C 412.01,92.5442 401.344,90.5442 390.5,89.5C 321.304,81.8701 251.97,80.5368 182.5,85.5C 159.056,86.8026 136.056,90.136 113.5,95.5C 106.776,96.7787 100.942,99.7787 96,104.5C 95.5012,108.486 95.3345,112.486 95.5,116.5C 92.5701,117.299 89.5701,117.632 86.5,117.5C 86.3337,110.159 86.5003,102.826 87,95.5C 95.6083,88.6248 105.442,84.4582 116.5,83C 148.265,77.5061 180.265,74.1728 212.5,73C 235.164,72.5 257.831,72.3334 280.5,72.5 Z"/></g>
<g><path style="opacity:1" fill="#78abd4" d="M 390.5,89.5 C 380.92,91.5746 371.086,92.908 361,93.5C 310.036,89.596 259.036,88.9293 208,91.5C 197.193,89.8265 186.359,88.3265 175.5,87C 178.036,86.8138 180.369,86.3138 182.5,85.5C 251.97,80.5368 321.304,81.8701 390.5,89.5 Z"/></g>
<g><path style="opacity:1" fill="#70a7d2" d="M 182.5,85.5 C 180.369,86.3138 178.036,86.8138 175.5,87C 186.359,88.3265 197.193,89.8265 208,91.5C 259.036,88.9293 310.036,89.596 361,93.5C 371.086,92.908 380.92,91.5746 390.5,89.5C 401.344,90.5442 412.01,92.5442 422.5,95.5C 422.586,96.4959 422.252,97.3292 421.5,98C 400.149,100.202 378.815,102.535 357.5,105C 358.167,105.333 358.833,105.667 359.5,106C 357.5,106.333 355.5,106.667 353.5,107C 356.036,107.186 358.369,107.686 360.5,108.5C 307.532,105.489 254.532,104.823 201.5,106.5C 172.609,104.162 143.609,101.329 114.5,98C 113.748,97.3292 113.414,96.4959 113.5,95.5C 136.056,90.136 159.056,86.8026 182.5,85.5 Z"/></g>
<g><path style="opacity:1" fill="#6d9ecd" d="M 113.5,95.5 C 113.414,96.4959 113.748,97.3292 114.5,98C 143.609,101.329 172.609,104.162 201.5,106.5C 166.018,108.248 130.685,111.581 95.5,116.5C 95.3345,112.486 95.5012,108.486 96,104.5C 100.942,99.7787 106.776,96.7787 113.5,95.5 Z"/></g>
<g><path style="opacity:1" fill="#6d9ecd" d="M 422.5,95.5 C 429.236,96.7842 435.069,99.7842 440,104.5C 440.499,108.486 440.666,112.486 440.5,116.5C 413.961,112.693 387.295,110.027 360.5,108.5C 358.369,107.686 356.036,107.186 353.5,107C 355.5,106.667 357.5,106.333 359.5,106C 358.833,105.667 358.167,105.333 357.5,105C 378.815,102.535 400.149,100.202 421.5,98C 422.252,97.3292 422.586,96.4959 422.5,95.5 Z"/></g>
<g><path style="opacity:1" fill="#e63233" d="M 362.5,112.5 C 360.012,114.388 357.012,115.055 353.5,114.5C 332.507,113.662 311.507,112.995 290.5,112.5C 267.156,112.319 243.822,112.652 220.5,113.5C 216.167,113.5 211.833,113.5 207.5,113.5C 188.823,114.31 170.156,115.31 151.5,116.5C 149.517,116.843 148.183,116.176 147.5,114.5C 219.101,108.569 290.768,107.903 362.5,112.5 Z"/></g>
<g><path style="opacity:1" fill="#fbf2f2" d="M 290.5,112.5 C 296.653,113.328 302.987,113.828 309.5,114C 308.167,114.333 306.833,114.667 305.5,115C 281.836,115.5 258.169,115.667 234.5,115.5C 229.156,115.666 223.823,115.499 218.5,115C 219.416,114.722 220.082,114.222 220.5,113.5C 243.822,112.652 267.156,112.319 290.5,112.5 Z"/></g>
<g><path style="opacity:1" fill="#f1d2d3" d="M 207.5,113.5 C 211.833,113.5 216.167,113.5 220.5,113.5C 220.082,114.222 219.416,114.722 218.5,115C 223.823,115.499 229.156,115.666 234.5,115.5C 234.5,115.833 234.5,116.167 234.5,116.5C 225.083,116.195 215.75,116.528 206.5,117.5C 200.833,117.5 195.167,117.5 189.5,117.5C 185.78,117.436 182.114,116.936 178.5,116C 188.357,115.617 198.024,114.783 207.5,113.5 Z"/></g>
<g><path style="opacity:1" fill="#f1b3b3" d="M 290.5,112.5 C 311.507,112.995 332.507,113.662 353.5,114.5C 359.301,115.682 365.301,116.348 371.5,116.5C 371.082,117.222 370.416,117.722 369.5,118C 365.848,118.499 362.182,118.665 358.5,118.5C 355.5,118.5 352.5,118.5 349.5,118.5C 311.19,116.817 272.856,116.15 234.5,116.5C 234.5,116.167 234.5,115.833 234.5,115.5C 258.169,115.667 281.836,115.5 305.5,115C 306.833,114.667 308.167,114.333 309.5,114C 302.987,113.828 296.653,113.328 290.5,112.5 Z"/></g>
<g><path style="opacity:1" fill="#e9a8a9" d="M 207.5,113.5 C 198.024,114.783 188.357,115.617 178.5,116C 182.114,116.936 185.78,117.436 189.5,117.5C 182.833,118.167 176.167,118.833 169.5,119.5C 162.146,119.479 154.813,119.813 147.5,120.5C 144.848,120.59 142.515,119.924 140.5,118.5C 144.312,117.974 147.979,117.307 151.5,116.5C 170.156,115.31 188.823,114.31 207.5,113.5 Z"/></g>
<g><path style="opacity:1" fill="#e93135" d="M 234.5,116.5 C 272.856,116.15 311.19,116.817 349.5,118.5C 349.5,118.833 349.5,119.167 349.5,119.5C 334.499,119.196 319.499,118.862 304.5,118.5C 304.5,123.5 304.5,128.5 304.5,133.5C 309.149,134.065 313.816,134.565 318.5,135C 317.207,135.49 315.873,135.657 314.5,135.5C 268.148,135.22 221.814,135.887 175.5,137.5C 172.813,137.664 170.146,137.497 167.5,137C 172.156,136.335 176.823,135.835 181.5,135.5C 197.869,135.268 214.203,134.601 230.5,133.5C 230.5,128.5 230.5,123.5 230.5,118.5C 222.316,118.826 214.316,118.492 206.5,117.5C 215.75,116.528 225.083,116.195 234.5,116.5 Z"/></g>
<g><path style="opacity:1" fill="#e33237" d="M 189.5,117.5 C 195.167,117.5 200.833,117.5 206.5,117.5C 214.316,118.492 222.316,118.826 230.5,118.5C 230.5,123.5 230.5,128.5 230.5,133.5C 214.203,134.601 197.869,135.268 181.5,135.5C 181.5,130.5 181.5,125.5 181.5,120.5C 177.298,120.817 173.298,120.483 169.5,119.5C 176.167,118.833 182.833,118.167 189.5,117.5 Z"/></g>
<g><path style="opacity:1" fill="#e43237" d="M 349.5,119.5 C 350.583,119.539 351.583,119.873 352.5,120.5C 353.329,125.467 353.829,130.467 354,135.5C 357.411,136.293 360.911,136.793 364.5,137C 361.518,137.498 358.518,137.665 355.5,137.5C 341.651,137.401 327.984,136.735 314.5,135.5C 315.873,135.657 317.207,135.49 318.5,135C 313.816,134.565 309.149,134.065 304.5,133.5C 304.5,128.5 304.5,123.5 304.5,118.5C 319.499,118.862 334.499,119.196 349.5,119.5 Z"/></g>
<g><path style="opacity:1" fill="#e5a1a2" d="M 371.5,116.5 C 382.843,117.39 394.177,118.39 405.5,119.5C 402.877,121.265 399.877,121.932 396.5,121.5C 383.648,120.964 370.981,119.964 358.5,118.5C 362.182,118.665 365.848,118.499 369.5,118C 370.416,117.722 371.082,117.222 371.5,116.5 Z"/></g>
<g><path style="opacity:1" fill="#dd3437" d="M 349.5,119.5 C 349.5,119.167 349.5,118.833 349.5,118.5C 352.5,118.5 355.5,118.5 358.5,118.5C 370.981,119.964 383.648,120.964 396.5,121.5C 397.919,122.451 399.585,122.784 401.5,122.5C 399.393,123.468 397.059,123.802 394.5,123.5C 394.5,128.5 394.5,133.5 394.5,138.5C 398.509,138.858 402.509,139.358 406.5,140C 403.518,140.498 400.518,140.665 397.5,140.5C 383.365,139.382 369.365,138.382 355.5,137.5C 358.518,137.665 361.518,137.498 364.5,137C 360.911,136.793 357.411,136.293 354,135.5C 353.829,130.467 353.329,125.467 352.5,120.5C 351.583,119.873 350.583,119.539 349.5,119.5 Z"/></g>
<g><path style="opacity:1" fill="#dd8687" d="M 405.5,119.5 C 414.488,120.593 423.488,121.593 432.5,122.5C 435.273,123.657 438.273,124.324 441.5,124.5C 440.817,126.176 439.483,126.843 437.5,126.5C 425.492,125.165 413.492,123.831 401.5,122.5C 399.585,122.784 397.919,122.451 396.5,121.5C 399.877,121.932 402.877,121.265 405.5,119.5 Z"/></g>
<g><path style="opacity:1" fill="#df8d8e" d="M 140.5,118.5 C 142.515,119.924 144.848,120.59 147.5,120.5C 135.981,121.887 124.315,123.221 112.5,124.5C 109.918,124.975 107.918,124.308 106.5,122.5C 117.728,120.364 129.061,119.03 140.5,118.5 Z"/></g>
<g><path style="opacity:1" fill="#d93737" d="M 362.5,112.5 C 388.262,114.31 413.929,116.976 439.5,120.5C 437.562,122.163 435.228,122.829 432.5,122.5C 423.488,121.593 414.488,120.593 405.5,119.5C 394.177,118.39 382.843,117.39 371.5,116.5C 365.301,116.348 359.301,115.682 353.5,114.5C 357.012,115.055 360.012,114.388 362.5,112.5 Z"/></g>
<g><path style="opacity:1" fill="#d93336" d="M 169.5,119.5 C 173.298,120.483 177.298,120.817 181.5,120.5C 181.5,125.5 181.5,130.5 181.5,135.5C 176.823,135.835 172.156,136.335 167.5,137C 170.146,137.497 172.813,137.664 175.5,137.5C 150.29,139.58 124.956,141.913 99.5,144.5C 98.7611,144.631 98.0944,144.464 97.5,144C 98.4714,138.928 98.8047,133.762 98.5,128.5C 97.209,128.737 96.209,128.404 95.5,127.5C 101.34,126.765 107.007,125.765 112.5,124.5C 124.315,123.221 135.981,121.887 147.5,120.5C 154.813,119.813 162.146,119.479 169.5,119.5 Z"/></g>
<g><path style="opacity:1" fill="#d73436" d="M 401.5,122.5 C 413.492,123.831 425.492,125.165 437.5,126.5C 438.209,127.404 439.209,127.737 440.5,127.5C 439.081,128.451 437.415,128.784 435.5,128.5C 435.5,133.5 435.5,138.5 435.5,143.5C 432.247,142.753 428.914,142.753 425.5,143.5C 416.006,142.687 406.673,141.687 397.5,140.5C 400.518,140.665 403.518,140.498 406.5,140C 402.509,139.358 398.509,138.858 394.5,138.5C 394.5,133.5 394.5,128.5 394.5,123.5C 397.059,123.802 399.393,123.468 401.5,122.5 Z"/></g>
<g><path style="opacity:1" fill="#d56667" d="M 106.5,122.5 C 107.918,124.308 109.918,124.975 112.5,124.5C 107.007,125.765 101.34,126.765 95.5,127.5C 82.0748,129.318 68.7415,131.652 55.5,134.5C 54.6236,134.631 53.9569,134.298 53.5,133.5C 54.6016,132.824 55.6016,132.158 56.5,131.5C 73.0058,127.775 89.6725,124.775 106.5,122.5 Z"/></g>
<g><path style="opacity:1" fill="#d23436" d="M 440.5,127.5 C 452.967,129.299 465.3,131.633 477.5,134.5C 476.875,140.116 476.208,145.783 475.5,151.5C 472.916,150.607 470.249,150.274 467.5,150.5C 453.406,147.966 439.406,145.632 425.5,143.5C 428.914,142.753 432.247,142.753 435.5,143.5C 435.5,138.5 435.5,133.5 435.5,128.5C 437.415,128.784 439.081,128.451 440.5,127.5 Z"/></g>
<g><path style="opacity:1" fill="#d1595b" d="M 441.5,124.5 C 460.941,126.982 479.941,131.315 498.5,137.5C 498.833,137.833 499.167,138.167 499.5,138.5C 498.833,138.833 498.167,139.167 497.5,139.5C 490.815,137.829 484.148,136.162 477.5,134.5C 465.3,131.633 452.967,129.299 440.5,127.5C 439.209,127.737 438.209,127.404 437.5,126.5C 439.483,126.843 440.817,126.176 441.5,124.5 Z"/></g>
<g><path style="opacity:1" fill="#cd3335" d="M 147.5,114.5 C 148.183,116.176 149.517,116.843 151.5,116.5C 147.979,117.307 144.312,117.974 140.5,118.5C 129.061,119.03 117.728,120.364 106.5,122.5C 89.6725,124.775 73.0058,127.775 56.5,131.5C 42.1634,134.002 28.8301,139.169 16.5,147C 29.4048,142.532 42.4048,138.365 55.5,134.5C 68.7415,131.652 82.0748,129.318 95.5,127.5C 96.209,128.404 97.209,128.737 98.5,128.5C 98.8047,133.762 98.4714,138.928 97.5,144C 98.0944,144.464 98.7611,144.631 99.5,144.5C 82.9777,146.939 66.6444,150.772 50.5,156C 46.7257,157.302 43.559,159.469 41,162.5C 40.3131,164.568 40.4798,166.568 41.5,168.5C 52.4167,175.586 64.4167,179.919 77.5,181.5C 77.6602,183.199 77.4935,184.866 77,186.5C 62.76,183.398 48.5933,179.898 34.5,176C -3.65149,162.5 -3.98483,148.5 33.5,134C 70.7699,123.313 108.77,116.813 147.5,114.5 Z"/></g>
<g><path style="opacity:1" fill="#cb3435" d="M 439.5,120.5 C 466.79,123.739 493.123,130.572 518.5,141C 523.284,143.45 527.117,146.95 530,151.5C 530.725,158.546 527.892,163.713 521.5,167C 502.063,176.11 481.729,182.276 460.5,185.5C 458.824,184.817 458.157,183.483 458.5,181.5C 467.609,179.472 476.609,176.972 485.5,174C 489.312,172.685 492.479,170.518 495,167.5C 495.806,162.94 493.973,159.774 489.5,158C 482.159,155.165 474.825,152.665 467.5,150.5C 470.249,150.274 472.916,150.607 475.5,151.5C 476.208,145.783 476.875,140.116 477.5,134.5C 484.148,136.162 490.815,137.829 497.5,139.5C 498.167,139.167 498.833,138.833 499.5,138.5C 499.167,138.167 498.833,137.833 498.5,137.5C 479.941,131.315 460.941,126.982 441.5,124.5C 438.273,124.324 435.273,123.657 432.5,122.5C 435.228,122.829 437.562,122.163 439.5,120.5 Z"/></g>
<g><path style="opacity:1" fill="#cb4345" d="M 56.5,131.5 C 55.6016,132.158 54.6016,132.824 53.5,133.5C 53.9569,134.298 54.6236,134.631 55.5,134.5C 42.4048,138.365 29.4048,142.532 16.5,147C 28.8301,139.169 42.1634,134.002 56.5,131.5 Z"/></g>
<g><path style="opacity:1" fill="#4493c9" d="M 357.5,142.5 C 353.818,142.335 350.152,142.501 346.5,143C 343.362,144.244 340.028,144.911 336.5,145C 336.833,145.333 337.167,145.667 337.5,146C 327.887,147.541 318.22,148.708 308.5,149.5C 284.84,150.333 261.174,150.833 237.5,151C 236.663,152.011 236.33,153.178 236.5,154.5C 232.386,153.49 228.386,152.49 224.5,151.5C 225.873,151.657 227.207,151.49 228.5,151C 228.043,150.586 227.709,150.086 227.5,149.5C 217.78,148.708 208.113,147.541 198.5,146C 198.833,145.667 199.167,145.333 199.5,145C 197.833,144.667 196.167,144.333 194.5,144C 199.833,143.333 205.167,142.667 210.5,142C 203.833,141.333 197.167,141.333 190.5,142C 192.595,142.556 192.762,143.056 191,143.5C 185.215,142.566 179.382,142.232 173.5,142.5C 202.798,140.251 232.298,139.251 262,139.5C 294.028,139.385 325.862,140.385 357.5,142.5 Z"/></g>
<g><path style="opacity:1" fill="#418cc5" d="M 224.5,151.5 C 216.714,150.657 209.381,151.991 202.5,155.5C 202.631,154.761 202.464,154.094 202,153.5C 200.758,154.872 199.258,155.872 197.5,156.5C 185.351,153.606 173.017,151.94 160.5,151.5C 160.5,150.5 160.5,149.5 160.5,148.5C 154.585,147.852 148.752,147.852 143,148.5C 141.266,147.751 139.433,147.251 137.5,147C 139.5,146.667 141.5,146.333 143.5,146C 140.183,145.502 136.85,145.335 133.5,145.5C 146.625,143.696 159.959,142.696 173.5,142.5C 179.382,142.232 185.215,142.566 191,143.5C 192.762,143.056 192.595,142.556 190.5,142C 197.167,141.333 203.833,141.333 210.5,142C 205.167,142.667 199.833,143.333 194.5,144C 196.167,144.333 197.833,144.667 199.5,145C 199.167,145.333 198.833,145.667 198.5,146C 208.113,147.541 217.78,148.708 227.5,149.5C 227.709,150.086 228.043,150.586 228.5,151C 227.207,151.49 225.873,151.657 224.5,151.5 Z"/></g>
<g><path style="opacity:1" fill="#2d62ad" d="M 87.5,151.5 C 93.1667,151.664 93.5,151.997 88.5,152.5C 88.3333,195.501 88.5,238.501 89,281.5C 91.0795,283.123 93.2462,284.623 95.5,286C 95.2716,286.399 94.9382,286.565 94.5,286.5C 91.6277,285.474 89.1277,283.808 87,281.5C 86.1686,237.998 86.3353,194.665 87.5,151.5 Z"/></g>
<g><path style="opacity:1" fill="#2264ae" d="M 87.5,151.5 C 88.9187,150.549 90.5853,150.216 92.5,150.5C 93.5,150.5 94.5,150.5 95.5,150.5C 95.5,158.833 95.5,167.167 95.5,175.5C 95.3626,182.214 95.8626,188.88 97,195.5C 102.825,194.532 108.658,194.865 114.5,196.5C 114.709,197.086 115.043,197.586 115.5,198C 121.196,198.17 126.862,198.67 132.5,199.5C 132.709,200.086 133.043,200.586 133.5,201C 136.429,201.777 139.263,201.61 142,200.5C 142.483,201.448 142.649,202.448 142.5,203.5C 150.507,203.334 158.507,203.5 166.5,204C 155.326,204.17 144.326,204.67 133.5,205.5C 133.5,228.167 133.5,250.833 133.5,273.5C 132.854,250.293 132.187,228.293 131.5,207.5C 130.512,212.64 130.179,217.974 130.5,223.5C 119.99,225.266 108.657,226.599 96.5,227.5C 95.6423,235.132 95.3089,242.799 95.5,250.5C 95.1746,258.352 95.508,266.018 96.5,273.5C 99.6974,276.365 103.364,278.365 107.5,279.5C 114.557,282.119 121.89,284.119 129.5,285.5C 143.084,287.821 156.751,289.488 170.5,290.5C 164.326,291.307 157.993,291.473 151.5,291C 155.005,294.522 159.005,297.189 163.5,299C 160.854,299.497 158.187,299.664 155.5,299.5C 139.25,298.625 123.25,296.125 107.5,292C 102.78,290.824 98.4465,288.99 94.5,286.5C 94.9382,286.565 95.2716,286.399 95.5,286C 93.2462,284.623 91.0795,283.123 89,281.5C 88.5,238.501 88.3333,195.501 88.5,152.5C 93.5,151.997 93.1667,151.664 87.5,151.5 Z"/></g>
<g><path style="opacity:1" fill="#fafafc" d="M 224.5,151.5 C 228.386,152.49 232.386,153.49 236.5,154.5C 243.971,158.101 247.304,164.101 246.5,172.5C 240.5,172.5 234.5,172.5 228.5,172.5C 228.737,171.209 228.404,170.209 227.5,169.5C 227.141,167.629 226.141,166.129 224.5,165C 221.167,164.333 217.833,164.333 214.5,165C 213.619,165.708 212.953,166.542 212.5,167.5C 211.12,167.962 210.453,168.962 210.5,170.5C 211.219,172.728 212.552,174.561 214.5,176C 221.622,178.948 228.955,181.281 236.5,183C 239.862,184.343 242.862,186.176 245.5,188.5C 248.376,191.76 249.709,195.594 249.5,200C 249.351,203.94 248.684,207.773 247.5,211.5C 237.097,221.225 224.764,224.725 210.5,222C 198.869,219.87 192.202,213.037 190.5,201.5C 196.412,199.544 202.745,198.877 209.5,199.5C 210.418,207.892 215.085,211.059 223.5,209C 226.47,208.692 228.47,207.192 229.5,204.5C 230.041,201.348 229.041,198.848 226.5,197C 216.89,194.463 207.556,191.13 198.5,187C 194.2,183.898 191.867,179.731 191.5,174.5C 191.5,172.833 191.5,171.167 191.5,169.5C 191.629,167.784 191.962,166.117 192.5,164.5C 195.185,160.817 198.518,157.817 202.5,155.5C 209.381,151.991 216.714,150.657 224.5,151.5 Z"/></g>
<g><path style="opacity:1" fill="#1b62ac" d="M 440.5,150.5 C 440.833,150.5 441.167,150.5 441.5,150.5C 443.099,150.232 444.432,150.566 445.5,151.5C 444.761,151.369 444.094,151.536 443.5,152C 444.793,152.49 446.127,152.657 447.5,152.5C 447.168,195.67 447.501,238.67 448.5,281.5C 445.961,284.19 442.961,286.357 439.5,288C 416.137,295.672 392.137,299.839 367.5,300.5C 365.473,300.662 363.473,300.495 361.5,300C 370.768,300.577 378.435,297.577 384.5,291C 382.292,290.809 380.292,290.309 378.5,289.5C 390.657,288.276 402.657,286.276 414.5,283.5C 423.681,282.11 432.014,278.777 439.5,273.5C 440.495,262.012 440.828,250.345 440.5,238.5C 440.5,231.833 440.5,225.167 440.5,218.5C 435.833,218.5 431.167,218.5 426.5,218.5C 427.296,213.853 427.963,209.186 428.5,204.5C 432.545,204.358 436.379,204.358 440,204.5C 440.499,199.511 440.666,194.511 440.5,189.5C 440.5,184.833 440.5,180.167 440.5,175.5C 440.5,167.167 440.5,158.833 440.5,150.5 Z"/></g>
<g><path style="opacity:1" fill="#3d86c1" d="M 133.5,145.5 C 136.85,145.335 140.183,145.502 143.5,146C 141.5,146.333 139.5,146.667 137.5,147C 139.433,147.251 141.266,147.751 143,148.5C 148.752,147.852 154.585,147.852 160.5,148.5C 160.5,149.5 160.5,150.5 160.5,151.5C 173.017,151.94 185.351,153.606 197.5,156.5C 199.258,155.872 200.758,154.872 202,153.5C 202.464,154.094 202.631,154.761 202.5,155.5C 198.518,157.817 195.185,160.817 192.5,164.5C 192.565,164.062 192.399,163.728 192,163.5C 190.991,164.658 189.658,165.325 188,165.5C 183.842,164.927 179.676,164.427 175.5,164C 175.833,163.667 176.167,163.333 176.5,163C 154.665,159.875 132.831,156.708 111,153.5C 107.155,153.906 103.321,154.406 99.5,155C 98.0472,156.649 97.0472,158.482 96.5,160.5C 96.5,157.5 96.5,154.5 96.5,151.5C 100.172,150.955 99.8383,150.622 95.5,150.5C 94.5,150.5 93.5,150.5 92.5,150.5C 105.986,148.44 119.653,146.773 133.5,145.5 Z"/></g>
<g><path style="opacity:1" fill="#3687c2" d="M 393.5,148.5 C 394.364,149.688 395.364,150.855 396.5,152C 392.848,152.499 389.182,152.665 385.5,152.5C 385.5,153.5 385.5,154.5 385.5,155.5C 381.5,155.5 377.5,155.5 373.5,155.5C 373.5,156.5 373.5,157.5 373.5,158.5C 369.833,158.5 366.167,158.5 362.5,158.5C 362.5,159.5 362.5,160.5 362.5,161.5C 358.774,161.177 355.107,161.511 351.5,162.5C 352.641,163.425 352.641,164.259 351.5,165C 345.863,166.012 340.196,166.845 334.5,167.5C 327.321,166.974 320.154,166.308 313,165.5C 310.576,165.53 308.243,165.863 306,166.5C 303.196,164.656 300.03,163.989 296.5,164.5C 297.514,163.235 299.014,162.569 301,162.5C 318.597,160.071 336.097,157.071 353.5,153.5C 360.805,152.466 368.139,151.799 375.5,151.5C 375.5,150.5 375.5,149.5 375.5,148.5C 381.58,147.813 387.58,147.813 393.5,148.5 Z"/></g>
<g><path style="opacity:1" fill="#358cc6" d="M 357.5,142.5 C 370.74,142.326 383.74,143.326 396.5,145.5C 395.127,145.343 393.793,145.51 392.5,146C 394.5,146.333 396.5,146.667 398.5,147C 396.618,147.198 394.952,147.698 393.5,148.5C 387.58,147.813 381.58,147.813 375.5,148.5C 375.5,149.5 375.5,150.5 375.5,151.5C 368.139,151.799 360.805,152.466 353.5,153.5C 336.097,157.071 318.597,160.071 301,162.5C 299.014,162.569 297.514,163.235 296.5,164.5C 294.234,164.859 292.401,164.192 291,162.5C 290.722,163.416 290.222,164.082 289.5,164.5C 289.38,163.414 288.713,162.747 287.5,162.5C 283.752,165.154 280.085,164.987 276.5,162C 271.004,161.319 268.004,163.819 267.5,169.5C 266.375,170.348 266.375,171.348 267.5,172.5C 263.34,174.42 259.673,177.087 256.5,180.5C 255.654,177.69 253.654,177.023 250.5,178.5C 242.919,176.956 235.252,176.123 227.5,176C 233.859,175.831 240.193,175.331 246.5,174.5C 240.346,173.833 234.346,173.167 228.5,172.5C 234.5,172.5 240.5,172.5 246.5,172.5C 247.304,164.101 243.971,158.101 236.5,154.5C 236.33,153.178 236.663,152.011 237.5,151C 261.174,150.833 284.84,150.333 308.5,149.5C 318.22,148.708 327.887,147.541 337.5,146C 337.167,145.667 336.833,145.333 336.5,145C 340.028,144.911 343.362,144.244 346.5,143C 350.152,142.501 353.818,142.335 357.5,142.5 Z"/></g>
<g><path style="opacity:1" fill="#f0f3f8" d="M 289.5,164.5 C 288.623,166.728 287.29,168.728 285.5,170.5C 281.323,170.829 277.49,169.829 274,167.5C 273.235,167.57 272.735,167.903 272.5,168.5C 270.958,169.301 269.292,169.634 267.5,169.5C 268.004,163.819 271.004,161.319 276.5,162C 280.085,164.987 283.752,165.154 287.5,162.5C 288.713,162.747 289.38,163.414 289.5,164.5 Z"/></g>
<g><path style="opacity:1" fill="#337fbe" d="M 192.5,164.5 C 191.962,166.117 191.629,167.784 191.5,169.5C 189.938,171.372 188.938,173.705 188.5,176.5C 187.707,176.931 186.873,177.265 186,177.5C 167.81,175.349 149.644,173.016 131.5,170.5C 131.5,169.5 131.5,168.5 131.5,167.5C 126.167,167.5 120.833,167.5 115.5,167.5C 115.5,166.5 115.5,165.5 115.5,164.5C 111.818,164.665 108.152,164.499 104.5,164C 104.957,163.586 105.291,163.086 105.5,162.5C 102.914,161.52 100.247,161.187 97.5,161.5C 97.6602,163.199 97.4935,164.866 97,166.5C 96.5045,164.527 96.3379,162.527 96.5,160.5C 97.0472,158.482 98.0472,156.649 99.5,155C 103.321,154.406 107.155,153.906 111,153.5C 132.831,156.708 154.665,159.875 176.5,163C 176.167,163.333 175.833,163.667 175.5,164C 179.676,164.427 183.842,164.927 188,165.5C 189.658,165.325 190.991,164.658 192,163.5C 192.399,163.728 192.565,164.062 192.5,164.5 Z"/></g>
<g><path style="opacity:1" fill="#3381bf" d="M 396.5,145.5 C 411.749,146.239 426.749,147.906 441.5,150.5C 441.167,150.5 440.833,150.5 440.5,150.5C 436.162,150.622 435.828,150.955 439.5,151.5C 440.334,159.179 440,162.513 438.5,161.5C 435.753,161.187 433.086,161.52 430.5,162.5C 430.709,163.086 431.043,163.586 431.5,164C 427.848,164.499 424.182,164.665 420.5,164.5C 420.5,165.5 420.5,166.5 420.5,167.5C 415.167,167.5 409.833,167.5 404.5,167.5C 404.5,168.5 404.5,169.5 404.5,170.5C 387.158,172.834 369.824,175.167 352.5,177.5C 351.5,176.833 350.5,176.167 349.5,175.5C 348.893,175.624 348.56,175.957 348.5,176.5C 336.736,171.081 325.069,171.248 313.5,177C 311.963,178.707 310.296,180.207 308.5,181.5C 308.565,181.062 308.399,180.728 308,180.5C 303.804,186.204 300.804,185.537 299,178.5C 298.31,177.262 297.81,177.262 297.5,178.5C 294.623,175.646 291.123,173.979 287,173.5C 280.534,172.6 274.034,172.267 267.5,172.5C 266.375,171.348 266.375,170.348 267.5,169.5C 269.292,169.634 270.958,169.301 272.5,168.5C 276.548,171.38 280.881,172.046 285.5,170.5C 287.29,168.728 288.623,166.728 289.5,164.5C 290.222,164.082 290.722,163.416 291,162.5C 292.401,164.192 294.234,164.859 296.5,164.5C 300.03,163.989 303.196,164.656 306,166.5C 308.243,165.863 310.576,165.53 313,165.5C 320.154,166.308 327.321,166.974 334.5,167.5C 340.196,166.845 345.863,166.012 351.5,165C 352.641,164.259 352.641,163.425 351.5,162.5C 355.107,161.511 358.774,161.177 362.5,161.5C 362.5,160.5 362.5,159.5 362.5,158.5C 366.167,158.5 369.833,158.5 373.5,158.5C 373.5,157.5 373.5,156.5 373.5,155.5C 377.5,155.5 381.5,155.5 385.5,155.5C 385.5,154.5 385.5,153.5 385.5,152.5C 389.182,152.665 392.848,152.499 396.5,152C 395.364,150.855 394.364,149.688 393.5,148.5C 394.952,147.698 396.618,147.198 398.5,147C 396.5,146.667 394.5,146.333 392.5,146C 393.793,145.51 395.127,145.343 396.5,145.5 Z"/></g>
<g><path style="opacity:1" fill="#3c4196" d="M 227.5,169.5 C 227.649,170.552 227.483,171.552 227,172.5C 226.654,170.152 225.487,168.319 223.5,167C 219.779,166.322 216.112,166.489 212.5,167.5C 212.953,166.542 213.619,165.708 214.5,165C 217.833,164.333 221.167,164.333 224.5,165C 226.141,166.129 227.141,167.629 227.5,169.5 Z"/></g>
<g><path style="opacity:1" fill="#31308b" d="M 285.5,170.5 C 280.881,172.046 276.548,171.38 272.5,168.5C 272.735,167.903 273.235,167.57 274,167.5C 277.49,169.829 281.323,170.829 285.5,170.5 Z"/></g>
<g><path style="opacity:1" fill="#fafafc" d="M 348.5,176.5 C 350.5,178.167 352.5,179.833 354.5,181.5C 355.866,184.232 357.199,186.899 358.5,189.5C 359.379,197.627 358.046,205.293 354.5,212.5C 350.703,217.445 345.703,220.612 339.5,222C 314.431,225.428 302.764,214.594 304.5,189.5C 305.801,186.899 307.134,184.232 308.5,181.5C 310.296,180.207 311.963,178.707 313.5,177C 325.069,171.248 336.736,171.081 348.5,176.5 Z"/></g>
<g><path style="opacity:1" fill="#f8fafc" d="M 267.5,172.5 C 274.034,172.267 280.534,172.6 287,173.5C 291.123,173.979 294.623,175.646 297.5,178.5C 298.594,180.359 299.427,182.359 300,184.5C 300.5,196.829 300.667,209.162 300.5,221.5C 295.167,221.5 289.833,221.5 284.5,221.5C 284.799,219.396 284.466,217.396 283.5,215.5C 282.893,215.624 282.56,215.957 282.5,216.5C 273.376,224.459 264.21,224.459 255,216.5C 253.589,214.35 252.755,212.016 252.5,209.5C 252.426,199.392 257.426,193.226 267.5,191C 272.489,190.501 277.489,190.334 282.5,190.5C 284.99,183.82 282.656,180.653 275.5,181C 274.619,181.708 273.953,182.542 273.5,183.5C 272.566,184.568 272.232,185.901 272.5,187.5C 266.833,187.5 261.167,187.5 255.5,187.5C 255.5,185.833 255.5,184.167 255.5,182.5C 256.338,182.158 256.672,181.492 256.5,180.5C 259.673,177.087 263.34,174.42 267.5,172.5 Z"/></g>
<g><path style="opacity:1" fill="#2c79ba" d="M 440.5,150.5 C 440.5,158.833 440.5,167.167 440.5,175.5C 439.833,175.5 439.5,175.833 439.5,176.5C 438.287,175.425 436.787,174.759 435,174.5C 425.266,176.508 415.433,177.508 405.5,177.5C 405.5,178.5 405.5,179.5 405.5,180.5C 400.687,180.903 396.02,180.903 391.5,180.5C 389.381,180.598 387.714,181.431 386.5,183C 377.148,183.424 368.148,185.258 359.5,188.5C 358.338,186.176 357.171,183.842 356,181.5C 355.31,180.262 354.81,180.262 354.5,181.5C 352.5,179.833 350.5,178.167 348.5,176.5C 348.56,175.957 348.893,175.624 349.5,175.5C 350.5,176.167 351.5,176.833 352.5,177.5C 369.824,175.167 387.158,172.834 404.5,170.5C 404.5,169.5 404.5,168.5 404.5,167.5C 409.833,167.5 415.167,167.5 420.5,167.5C 420.5,166.5 420.5,165.5 420.5,164.5C 424.182,164.665 427.848,164.499 431.5,164C 431.043,163.586 430.709,163.086 430.5,162.5C 433.086,161.52 435.753,161.187 438.5,161.5C 440,162.513 440.334,159.179 439.5,151.5C 435.828,150.955 436.162,150.622 440.5,150.5 Z"/></g>
<g><path style="opacity:1" fill="#287dbe" d="M 227.5,169.5 C 228.404,170.209 228.737,171.209 228.5,172.5C 234.346,173.167 240.346,173.833 246.5,174.5C 240.193,175.331 233.859,175.831 227.5,176C 235.252,176.123 242.919,176.956 250.5,178.5C 253.654,177.023 255.654,177.69 256.5,180.5C 256.672,181.492 256.338,182.158 255.5,182.5C 254.232,184.905 253.565,187.572 253.5,190.5C 256.85,190.335 260.183,190.502 263.5,191C 257.194,192.422 251.527,191.256 246.5,187.5C 245.893,187.624 245.56,187.957 245.5,188.5C 242.862,186.176 239.862,184.343 236.5,183C 228.955,181.281 221.622,178.948 214.5,176C 212.552,174.561 211.219,172.728 210.5,170.5C 210.453,168.962 211.12,167.962 212.5,167.5C 216.112,166.489 219.779,166.322 223.5,167C 225.487,168.319 226.654,170.152 227,172.5C 227.483,171.552 227.649,170.552 227.5,169.5 Z"/></g>
<g><path style="opacity:1" fill="#494598" d="M 282.5,190.5 C 282.644,183.968 279.644,181.635 273.5,183.5C 273.953,182.542 274.619,181.708 275.5,181C 282.656,180.653 284.99,183.82 282.5,190.5 Z"/></g>
<g><path style="opacity:1" fill="#eba6a7" d="M 458.5,181.5 C 458.157,183.483 458.824,184.817 460.5,185.5C 459.791,186.404 458.791,186.737 457.5,186.5C 457.216,184.585 457.549,182.919 458.5,181.5 Z"/></g>
<g><path style="opacity:1" fill="#2978ba" d="M 95.5,150.5 C 99.8383,150.622 100.172,150.955 96.5,151.5C 96.5,154.5 96.5,157.5 96.5,160.5C 96.3379,162.527 96.5045,164.527 97,166.5C 97.4935,164.866 97.6602,163.199 97.5,161.5C 100.247,161.187 102.914,161.52 105.5,162.5C 105.291,163.086 104.957,163.586 104.5,164C 108.152,164.499 111.818,164.665 115.5,164.5C 115.5,165.5 115.5,166.5 115.5,167.5C 120.833,167.5 126.167,167.5 131.5,167.5C 131.5,168.5 131.5,169.5 131.5,170.5C 149.644,173.016 167.81,175.349 186,177.5C 186.873,177.265 187.707,176.931 188.5,176.5C 188.938,173.705 189.938,171.372 191.5,169.5C 191.5,171.167 191.5,172.833 191.5,174.5C 190.236,181.953 193.236,187.287 200.5,190.5C 199.726,191.147 198.726,191.48 197.5,191.5C 181.552,188.419 165.552,185.586 149.5,183C 148.286,181.431 146.619,180.598 144.5,180.5C 139.98,180.903 135.313,180.903 130.5,180.5C 130.5,179.5 130.5,178.5 130.5,177.5C 120.567,177.508 110.734,176.508 101,174.5C 99.2134,174.759 97.7134,175.425 96.5,176.5C 96.5,175.833 96.1667,175.5 95.5,175.5C 95.5,167.167 95.5,158.833 95.5,150.5 Z"/></g>
<g><path style="opacity:1" fill="#2073b8" d="M 200.5,190.5 C 207.916,193.694 215.583,196.194 223.5,198C 227.163,198.822 229.163,200.989 229.5,204.5C 228.47,207.192 226.47,208.692 223.5,209C 215.085,211.059 210.418,207.892 209.5,199.5C 202.745,198.877 196.412,199.544 190.5,201.5C 190.167,201.5 189.833,201.5 189.5,201.5C 189.915,199.052 188.915,197.719 186.5,197.5C 180.866,198.575 175.199,198.742 169.5,198C 169.043,197.586 168.709,197.086 168.5,196.5C 144.651,191.496 120.651,187.496 96.5,184.5C 96.5,181.833 96.5,179.167 96.5,176.5C 97.7134,175.425 99.2134,174.759 101,174.5C 110.734,176.508 120.567,177.508 130.5,177.5C 130.5,178.5 130.5,179.5 130.5,180.5C 135.313,180.903 139.98,180.903 144.5,180.5C 146.619,180.598 148.286,181.431 149.5,183C 165.552,185.586 181.552,188.419 197.5,191.5C 198.726,191.48 199.726,191.147 200.5,190.5 Z"/></g>
<g><path style="opacity:1" fill="#2273b7" d="M 439.5,176.5 C 439.5,179.167 439.5,181.833 439.5,184.5C 429.274,185.328 419.107,186.661 409,188.5C 392.545,191.408 376.378,194.742 360.5,198.5C 360.932,195.123 360.265,192.123 358.5,189.5C 357.199,186.899 355.866,184.232 354.5,181.5C 354.81,180.262 355.31,180.262 356,181.5C 357.171,183.842 358.338,186.176 359.5,188.5C 368.148,185.258 377.148,183.424 386.5,183C 387.714,181.431 389.381,180.598 391.5,180.5C 396.02,180.903 400.687,180.903 405.5,180.5C 405.5,179.5 405.5,178.5 405.5,177.5C 415.433,177.508 425.266,176.508 435,174.5C 436.787,174.759 438.287,175.425 439.5,176.5 Z"/></g>
<g><path style="opacity:1" fill="#3d3d93" d="M 191.5,174.5 C 191.867,179.731 194.2,183.898 198.5,187C 207.556,191.13 216.89,194.463 226.5,197C 229.041,198.848 230.041,201.348 229.5,204.5C 229.163,200.989 227.163,198.822 223.5,198C 215.583,196.194 207.916,193.694 200.5,190.5C 193.236,187.287 190.236,181.953 191.5,174.5 Z"/></g>
<g><path style="opacity:1" fill="#1767b0" d="M 440.5,189.5 C 440.666,194.511 440.499,199.511 440,204.5C 436.379,204.358 432.545,204.358 428.5,204.5C 427.963,209.186 427.296,213.853 426.5,218.5C 431.167,218.5 435.833,218.5 440.5,218.5C 440.5,225.167 440.5,231.833 440.5,238.5C 439.833,238.5 439.5,238.167 439.5,237.5C 439.5,234.167 439.5,230.833 439.5,227.5C 431.155,226.851 422.822,226.017 414.5,225C 414.833,224.667 415.167,224.333 415.5,224C 400.55,221.511 385.55,219.345 370.5,217.5C 372.446,212.996 373.78,208.329 374.5,203.5C 380.833,203.5 387.167,203.5 393.5,203.5C 393.351,202.448 393.517,201.448 394,200.5C 396.737,201.61 399.571,201.777 402.5,201C 402.957,200.586 403.291,200.086 403.5,199.5C 409.138,198.67 414.804,198.17 420.5,198C 421.886,196.397 423.719,195.563 426,195.5C 430.479,194.836 434.979,194.502 439.5,194.5C 439.216,192.585 439.549,190.919 440.5,189.5 Z"/></g>
<g><path style="opacity:1" fill="#186db5" d="M 95.5,175.5 C 96.1667,175.5 96.5,175.833 96.5,176.5C 96.5,179.167 96.5,181.833 96.5,184.5C 120.651,187.496 144.651,191.496 168.5,196.5C 168.709,197.086 169.043,197.586 169.5,198C 175.199,198.742 180.866,198.575 186.5,197.5C 188.915,197.719 189.915,199.052 189.5,201.5C 190.604,214.603 197.604,222.269 210.5,224.5C 210.5,224.833 210.5,225.167 210.5,225.5C 207.064,226.192 203.73,227.192 200.5,228.5C 196.936,227.577 193.269,227.244 189.5,227.5C 189.81,224.287 189.477,221.287 188.5,218.5C 186.934,212.202 182.934,208.369 176.5,207C 162.217,205.589 147.884,205.089 133.5,205.5C 144.326,204.67 155.326,204.17 166.5,204C 158.507,203.5 150.507,203.334 142.5,203.5C 142.649,202.448 142.483,201.448 142,200.5C 139.263,201.61 136.429,201.777 133.5,201C 133.043,200.586 132.709,200.086 132.5,199.5C 126.862,198.67 121.196,198.17 115.5,198C 115.043,197.586 114.709,197.086 114.5,196.5C 108.658,194.865 102.825,194.532 97,195.5C 95.8626,188.88 95.3626,182.214 95.5,175.5 Z"/></g>
<g><path style="opacity:1" fill="#46489b" d="M 283.5,203.5 C 282.596,202.791 282.263,201.791 282.5,200.5C 278.259,200.185 274.426,201.185 271,203.5C 270.601,203.272 270.435,202.938 270.5,202.5C 274.031,198.997 278.364,197.663 283.5,198.5C 283.5,200.167 283.5,201.833 283.5,203.5 Z"/></g>
<g><path style="opacity:1" fill="#1872b9" d="M 283.5,203.5 C 281.848,212.363 277.348,214.363 270,209.5C 269.204,206.961 269.371,204.628 270.5,202.5C 270.435,202.938 270.601,203.272 271,203.5C 274.426,201.185 278.259,200.185 282.5,200.5C 282.263,201.791 282.596,202.791 283.5,203.5 Z"/></g>
<g><path style="opacity:1" fill="#fbfcfd" d="M 133.5,205.5 C 147.884,205.089 162.217,205.589 176.5,207C 182.934,208.369 186.934,212.202 188.5,218.5C 189.563,225.358 187.896,231.358 183.5,236.5C 180.228,237.758 176.894,238.925 173.5,240C 174.793,240.49 176.127,240.657 177.5,240.5C 182.457,241.96 185.623,245.293 187,250.5C 187.181,253.695 187.681,256.695 188.5,259.5C 189.296,264.147 189.963,268.814 190.5,273.5C 183.833,273.5 177.167,273.5 170.5,273.5C 170.5,273.167 170.5,272.833 170.5,272.5C 169.585,266.019 168.585,259.685 167.5,253.5C 165.705,248.844 162.205,246.844 157,247.5C 154.705,247.547 152.871,248.213 151.5,249.5C 151.5,257.5 151.5,265.5 151.5,273.5C 145.5,273.5 139.5,273.5 133.5,273.5C 133.5,250.833 133.5,228.167 133.5,205.5 Z"/></g>
<g><path style="opacity:1" fill="#373d93" d="M 152.5,218.5 C 156.846,218.334 161.179,218.501 165.5,219C 167.324,219.66 168.657,220.827 169.5,222.5C 169.631,223.239 169.464,223.906 169,224.5C 167.833,223.333 166.667,222.167 165.5,221C 160.72,221.108 156.386,220.275 152.5,218.5 Z"/></g>
<g><path style="opacity:1" fill="#333c94" d="M 252.5,209.5 C 252.755,212.016 253.589,214.35 255,216.5C 264.21,224.459 273.376,224.459 282.5,216.5C 283.598,217.601 283.765,218.934 283,220.5C 282.667,219.833 282.333,219.167 282,218.5C 278.899,221.352 275.399,223.352 271.5,224.5C 257.716,225.546 250.882,219.213 251,205.5C 251.21,207.058 251.71,208.391 252.5,209.5 Z"/></g>
<g><path style="opacity:1" fill="#206eb5" d="M 440.5,175.5 C 440.5,180.167 440.5,184.833 440.5,189.5C 439.549,190.919 439.216,192.585 439.5,194.5C 434.979,194.502 430.479,194.836 426,195.5C 423.719,195.563 421.886,196.397 420.5,198C 414.804,198.17 409.138,198.67 403.5,199.5C 403.291,200.086 402.957,200.586 402.5,201C 399.571,201.777 396.737,201.61 394,200.5C 393.517,201.448 393.351,202.448 393.5,203.5C 387.167,203.5 380.833,203.5 374.5,203.5C 373.78,208.329 372.446,212.996 370.5,217.5C 385.55,219.345 400.55,221.511 415.5,224C 415.167,224.333 414.833,224.667 414.5,225C 422.822,226.017 431.155,226.851 439.5,227.5C 439.5,230.833 439.5,234.167 439.5,237.5C 435.132,239.188 430.465,240.022 425.5,240C 425,240.5 424.5,241 424,241.5C 420.412,240.585 416.745,240.585 413,241.5C 410.95,241.309 409.117,240.642 407.5,239.5C 407.661,244.227 407.328,248.894 406.5,253.5C 406.813,249.958 406.479,246.625 405.5,243.5C 402.926,230.113 394.76,224.113 381,225.5C 368.808,225.198 360.975,230.864 357.5,242.5C 356.514,246.97 356.181,251.637 356.5,256.5C 355.833,253.833 355.167,251.167 354.5,248.5C 354.5,241.167 354.5,233.833 354.5,226.5C 348.69,225.51 342.69,225.177 336.5,225.5C 336.5,235.833 336.5,246.167 336.5,256.5C 336.5,256.833 336.5,257.167 336.5,257.5C 335.67,248.009 335.17,238.342 335,228.5C 334.333,229.833 333.333,230.833 332,231.5C 329.281,230.556 326.448,230.223 323.5,230.5C 323.826,239.017 323.493,247.35 322.5,255.5C 321.506,246.014 321.173,236.348 321.5,226.5C 315.833,226.5 310.167,226.5 304.5,226.5C 304.5,237.5 304.5,248.5 304.5,259.5C 304.167,259.5 303.833,259.5 303.5,259.5C 302.77,248.309 302.103,236.976 301.5,225.5C 295.31,225.177 289.31,225.51 283.5,226.5C 283.785,228.288 283.452,229.955 282.5,231.5C 279.769,228.469 276.436,226.469 272.5,225.5C 272.5,224.833 272.167,224.5 271.5,224.5C 275.399,223.352 278.899,221.352 282,218.5C 282.333,219.167 282.667,219.833 283,220.5C 283.765,218.934 283.598,217.601 282.5,216.5C 282.56,215.957 282.893,215.624 283.5,215.5C 284.466,217.396 284.799,219.396 284.5,221.5C 289.833,221.5 295.167,221.5 300.5,221.5C 300.667,209.162 300.5,196.829 300,184.5C 299.427,182.359 298.594,180.359 297.5,178.5C 297.81,177.262 298.31,177.262 299,178.5C 300.804,185.537 303.804,186.204 308,180.5C 308.399,180.728 308.565,181.062 308.5,181.5C 307.134,184.232 305.801,186.899 304.5,189.5C 300.905,216.728 312.905,227.894 340.5,223C 346.333,221.826 351.166,218.993 355,214.5C 355.692,213.563 355.525,212.897 354.5,212.5C 358.046,205.293 359.379,197.627 358.5,189.5C 360.265,192.123 360.932,195.123 360.5,198.5C 376.378,194.742 392.545,191.408 409,188.5C 419.107,186.661 429.274,185.328 439.5,184.5C 439.5,181.833 439.5,179.167 439.5,176.5C 439.5,175.833 439.833,175.5 440.5,175.5 Z"/></g>
<g><path style="opacity:1" fill="#393d94" d="M 304.5,189.5 C 302.764,214.594 314.431,225.428 339.5,222C 345.703,220.612 350.703,217.445 354.5,212.5C 355.525,212.897 355.692,213.563 355,214.5C 351.166,218.993 346.333,221.826 340.5,223C 312.905,227.894 300.905,216.728 304.5,189.5 Z"/></g>
<g><path style="opacity:1" fill="#1f73b9" d="M 339.5,189.5 C 341.047,196.176 340.547,202.843 338,209.5C 330.149,214.743 325.149,212.743 323,203.5C 322.333,198.833 322.333,194.167 323,189.5C 323.223,187.119 324.39,185.453 326.5,184.5C 333.719,182.85 337.886,185.85 339,193.5C 339.49,192.207 339.657,190.873 339.5,189.5 Z"/></g>
<g><path style="opacity:1" fill="#33338d" d="M 339.5,189.5 C 339.657,190.873 339.49,192.207 339,193.5C 337.886,185.85 333.719,182.85 326.5,184.5C 326.611,183.883 326.944,183.383 327.5,183C 333.994,180.787 337.994,182.954 339.5,189.5 Z"/></g>
<g><path style="opacity:1" fill="#2278bc" d="M 255.5,182.5 C 255.5,184.167 255.5,185.833 255.5,187.5C 261.167,187.5 266.833,187.5 272.5,187.5C 272.232,185.901 272.566,184.568 273.5,183.5C 279.644,181.635 282.644,183.968 282.5,190.5C 277.489,190.334 272.489,190.501 267.5,191C 257.426,193.226 252.426,199.392 252.5,209.5C 251.71,208.391 251.21,207.058 251,205.5C 250.882,219.213 257.716,225.546 271.5,224.5C 272.167,224.5 272.5,224.833 272.5,225.5C 258.507,223.845 250.174,229.845 247.5,243.5C 246.497,246.384 246.164,250.051 246.5,254.5C 245.833,251.5 245.167,248.5 244.5,245.5C 243.329,235.158 237.663,228.658 227.5,226C 221.843,225.501 216.176,225.334 210.5,225.5C 210.5,225.167 210.5,224.833 210.5,224.5C 221.782,225.232 232.449,223.065 242.5,218C 244.79,216.223 246.457,214.056 247.5,211.5C 248.684,207.773 249.351,203.94 249.5,200C 249.709,195.594 248.376,191.76 245.5,188.5C 245.56,187.957 245.893,187.624 246.5,187.5C 251.527,191.256 257.194,192.422 263.5,191C 260.183,190.502 256.85,190.335 253.5,190.5C 253.565,187.572 254.232,184.905 255.5,182.5 Z"/></g>
<g><path style="opacity:1" fill="#2a2787" d="M 255.5,187.5 C 260.651,188.327 265.984,188.827 271.5,189C 265.804,189.83 260.137,189.663 254.5,188.5C 254.624,187.893 254.957,187.56 255.5,187.5 Z"/></g>
<g><path style="opacity:1" fill="#343790" d="M 189.5,201.5 C 189.833,201.5 190.167,201.5 190.5,201.5C 192.202,213.037 198.869,219.87 210.5,222C 224.764,224.725 237.097,221.225 247.5,211.5C 246.457,214.056 244.79,216.223 242.5,218C 232.449,223.065 221.782,225.232 210.5,224.5C 197.604,222.269 190.604,214.603 189.5,201.5 Z"/></g>
<g><path style="opacity:1" fill="#fafafc" d="M 210.5,225.5 C 216.176,225.334 221.843,225.501 227.5,226C 237.663,228.658 243.329,235.158 244.5,245.5C 245.787,254.63 243.454,262.63 237.5,269.5C 223.158,278.15 209.325,277.484 196,267.5C 192.876,262.96 191.043,257.96 190.5,252.5C 189.484,242.549 192.817,234.549 200.5,228.5C 203.73,227.192 207.064,226.192 210.5,225.5 Z"/></g>
<g><path style="opacity:1" fill="#fafbfc" d="M 272.5,225.5 C 276.436,226.469 279.769,228.469 282.5,231.5C 283.452,229.955 283.785,228.288 283.5,226.5C 289.167,226.5 294.833,226.5 300.5,226.5C 300.5,240.833 300.5,255.167 300.5,269.5C 300.5,276.833 300.5,284.167 300.5,291.5C 294.833,291.5 289.167,291.5 283.5,291.5C 283.831,283.804 283.497,276.138 282.5,268.5C 281.893,268.624 281.56,268.957 281.5,269.5C 281.167,270.167 280.833,270.833 280.5,271.5C 278.566,272.11 276.899,273.11 275.5,274.5C 259.636,277.663 250.469,271.329 248,255.5C 247.501,251.514 247.334,247.514 247.5,243.5C 250.174,229.845 258.507,223.845 272.5,225.5 Z"/></g>
<g><path style="opacity:1" fill="#fbfbfc" d="M 405.5,243.5 C 405.5,246.833 405.5,250.167 405.5,253.5C 394.654,253.172 383.987,253.506 373.5,254.5C 374.067,263.918 378.734,267.085 387.5,264C 388.861,262.416 389.528,260.582 389.5,258.5C 394.833,258.5 400.167,258.5 405.5,258.5C 405.5,259.5 405.5,260.5 405.5,261.5C 404.008,265.341 401.675,268.675 398.5,271.5C 391.068,274.056 383.401,275.056 375.5,274.5C 367.957,273.4 362.623,269.4 359.5,262.5C 357.731,255.984 357.064,249.317 357.5,242.5C 360.975,230.864 368.808,225.198 381,225.5C 394.76,224.113 402.926,230.113 405.5,243.5 Z"/></g>
<g><path style="opacity:1" fill="#fcfcfd" d="M 322.5,255.5 C 322.538,262.369 325.871,264.869 332.5,263C 334.439,261.568 335.772,259.735 336.5,257.5C 336.5,257.167 336.5,256.833 336.5,256.5C 337.494,246.681 337.827,236.681 337.5,226.5C 343.167,226.5 348.833,226.5 354.5,226.5C 354.5,233.833 354.5,241.167 354.5,248.5C 354.5,256.833 354.5,265.167 354.5,273.5C 348.833,273.5 343.167,273.5 337.5,273.5C 337.662,271.473 337.495,269.473 337,267.5C 332.189,273.272 326.022,275.606 318.5,274.5C 309.745,273.409 305.078,268.409 304.5,259.5C 304.5,248.5 304.5,237.5 304.5,226.5C 310.167,226.5 315.833,226.5 321.5,226.5C 321.173,236.348 321.506,246.014 322.5,255.5 Z"/></g>
<g><path style="opacity:1" fill="#226fb5" d="M 152.5,218.5 C 156.386,220.275 160.72,221.108 165.5,221C 166.667,222.167 167.833,223.333 169,224.5C 169.464,223.906 169.631,223.239 169.5,222.5C 171.309,226.921 170.309,230.754 166.5,234C 161.511,234.499 156.511,234.666 151.5,234.5C 151.179,228.974 151.512,223.64 152.5,218.5 Z"/></g>
<g><path style="opacity:1" fill="#2c62ad" d="M 445.5,151.5 C 446.833,151.5 448.167,151.5 449.5,151.5C 449.832,195.003 449.499,238.337 448.5,281.5C 447.501,238.67 447.168,195.67 447.5,152.5C 446.127,152.657 444.793,152.49 443.5,152C 444.094,151.536 444.761,151.369 445.5,151.5 Z"/></g>
<g><path style="opacity:1" fill="#3686c3" d="M 283.5,226.5 C 289.31,225.51 295.31,225.177 301.5,225.5C 302.103,236.976 302.77,248.309 303.5,259.5C 303.5,260.833 303.5,262.167 303.5,263.5C 303.06,265.844 302.06,267.844 300.5,269.5C 300.5,255.167 300.5,240.833 300.5,226.5C 294.833,226.5 289.167,226.5 283.5,226.5 Z"/></g>
<g><path style="opacity:1" fill="#2b71b5" d="M 131.5,207.5 C 131.5,218.167 131.5,228.833 131.5,239.5C 120.183,241.426 108.849,243.426 97.5,245.5C 97.6495,244.448 97.4828,243.448 97,242.5C 96.8171,245.365 96.3171,248.031 95.5,250.5C 95.3089,242.799 95.6423,235.132 96.5,227.5C 108.657,226.599 119.99,225.266 130.5,223.5C 130.179,217.974 130.512,212.64 131.5,207.5 Z"/></g>
<g><path style="opacity:1" fill="#434095" d="M 225.5,242.5 C 225.737,243.791 225.404,244.791 224.5,245.5C 223.699,236.837 219.533,234.504 212,238.5C 211.601,238.272 211.435,237.938 211.5,237.5C 215.55,233.522 219.716,233.522 224,237.5C 225.009,239.025 225.509,240.692 225.5,242.5 Z"/></g>
<g><path style="opacity:1" fill="#393991" d="M 389.5,240.5 C 389.737,241.791 389.404,242.791 388.5,243.5C 387.044,236.783 383.044,234.783 376.5,237.5C 378.407,234.668 381.073,233.834 384.5,235C 387.079,236.076 388.746,237.909 389.5,240.5 Z"/></g>
<g><path style="opacity:1" fill="#317bbb" d="M 188.5,218.5 C 189.477,221.287 189.81,224.287 189.5,227.5C 193.269,227.244 196.936,227.577 200.5,228.5C 192.817,234.549 189.484,242.549 190.5,252.5C 189.343,255.026 189.343,257.693 190.5,260.5C 189.833,260.167 189.167,259.833 188.5,259.5C 187.681,256.695 187.181,253.695 187,250.5C 185.623,245.293 182.457,241.96 177.5,240.5C 180.198,240.155 182.198,238.822 183.5,236.5C 187.896,231.358 189.563,225.358 188.5,218.5 Z"/></g>
<g><path style="opacity:1" fill="#2b76b9" d="M 388.5,243.5 C 383.833,243.5 379.167,243.5 374.5,243.5C 374.5,242.5 374.5,241.5 374.5,240.5C 374.427,238.973 375.094,237.973 376.5,237.5C 383.044,234.783 387.044,236.783 388.5,243.5 Z"/></g>
<g><path style="opacity:1" fill="#484c9d" d="M 183.5,236.5 C 182.198,238.822 180.198,240.155 177.5,240.5C 176.127,240.657 174.793,240.49 173.5,240C 176.894,238.925 180.228,237.758 183.5,236.5 Z"/></g>
<g><path style="opacity:1" fill="#484c9d" d="M 282.5,256.5 C 281.675,252.353 281.175,248.019 281,243.5C 278.624,237.257 274.624,235.924 269,239.5C 268.601,239.272 268.435,238.938 268.5,238.5C 272.849,234.328 277.015,234.661 281,239.5C 283.615,244.986 284.115,250.652 282.5,256.5 Z"/></g>
<g><path style="opacity:1" fill="#a1a8cf" d="M 354.5,226.5 C 348.833,226.5 343.167,226.5 337.5,226.5C 337.827,236.681 337.494,246.681 336.5,256.5C 336.5,246.167 336.5,235.833 336.5,225.5C 342.69,225.177 348.69,225.51 354.5,226.5 Z"/></g>
<g><path style="opacity:1" fill="#2f80bf" d="M 336.5,257.5 C 335.772,259.735 334.439,261.568 332.5,263C 325.871,264.869 322.538,262.369 322.5,255.5C 323.493,247.35 323.826,239.017 323.5,230.5C 326.448,230.223 329.281,230.556 332,231.5C 333.333,230.833 334.333,229.833 335,228.5C 335.17,238.342 335.67,248.009 336.5,257.5 Z"/></g>
<g><path style="opacity:1" fill="#7ba3cf" d="M 374.5,240.5 C 374.5,241.5 374.5,242.5 374.5,243.5C 379.167,243.5 383.833,243.5 388.5,243.5C 389.404,242.791 389.737,241.791 389.5,240.5C 390.434,241.568 390.768,242.901 390.5,244.5C 384.833,244.5 379.167,244.5 373.5,244.5C 373.232,242.901 373.566,241.568 374.5,240.5 Z"/></g>
<g><path style="opacity:1" fill="#636db0" d="M 225.5,242.5 C 226.757,247.703 226.757,253.036 225.5,258.5C 224.515,254.366 224.182,250.032 224.5,245.5C 225.404,244.791 225.737,243.791 225.5,242.5 Z"/></g>
<g><path style="opacity:1" fill="#383890" d="M 167.5,253.5 C 167.672,254.492 167.338,255.158 166.5,255.5C 166.16,253.321 165.16,251.488 163.5,250C 159.514,249.501 155.514,249.334 151.5,249.5C 152.871,248.213 154.705,247.547 157,247.5C 162.205,246.844 165.705,248.844 167.5,253.5 Z"/></g>
<g><path style="opacity:1" fill="#3f7dbb" d="M 131.5,239.5 C 131.5,244.5 131.5,249.5 131.5,254.5C 130.837,256.042 130.17,257.709 129.5,259.5C 128.914,259.291 128.414,258.957 128,258.5C 126.647,259.704 124.981,260.371 123,260.5C 114.837,261.366 106.67,262.2 98.5,263C 99.6956,263.654 99.6956,264.154 98.5,264.5C 97.6816,261.893 97.1816,259.226 97,256.5C 96.5006,262.157 96.3339,267.824 96.5,273.5C 95.508,266.018 95.1746,258.352 95.5,250.5C 96.3171,248.031 96.8171,245.365 97,242.5C 97.4828,243.448 97.6495,244.448 97.5,245.5C 108.849,243.426 120.183,241.426 131.5,239.5 Z"/></g>
<g><path style="opacity:1" fill="#3784c1" d="M 224.5,245.5 C 224.182,250.032 224.515,254.366 225.5,258.5C 223.423,264.128 219.423,265.961 213.5,264C 209.725,259.939 208.058,255.106 208.5,249.5C 208.086,245.021 209.086,241.021 211.5,237.5C 211.435,237.938 211.601,238.272 212,238.5C 219.533,234.504 223.699,236.837 224.5,245.5 Z"/></g>
<g><path style="opacity:1" fill="#3e78b8" d="M 439.5,237.5 C 439.5,238.167 439.833,238.5 440.5,238.5C 440.828,250.345 440.495,262.012 439.5,273.5C 439.5,271.5 439.5,269.5 439.5,267.5C 440.213,259.837 439.88,255.837 438.5,255.5C 428.191,256.747 417.858,257.747 407.5,258.5C 407.509,260.308 407.009,261.975 406,263.5C 405.536,262.906 405.369,262.239 405.5,261.5C 405.5,260.5 405.5,259.5 405.5,258.5C 400.167,258.5 394.833,258.5 389.5,258.5C 389.528,260.582 388.861,262.416 387.5,264C 378.734,267.085 374.067,263.918 373.5,254.5C 384.679,254.828 395.679,254.495 406.5,253.5C 407.328,248.894 407.661,244.227 407.5,239.5C 409.117,240.642 410.95,241.309 413,241.5C 416.745,240.585 420.412,240.585 424,241.5C 424.5,241 425,240.5 425.5,240C 430.465,240.022 435.132,239.188 439.5,237.5 Z"/></g>
<g><path style="opacity:1" fill="#9ba1cb" d="M 405.5,243.5 C 406.479,246.625 406.813,249.958 406.5,253.5C 395.679,254.495 384.679,254.828 373.5,254.5C 383.987,253.506 394.654,253.172 405.5,253.5C 405.5,250.167 405.5,246.833 405.5,243.5 Z"/></g>
<g><path style="opacity:1" fill="#213d96" d="M 133.5,273.5 C 138.985,274.327 144.652,274.827 150.5,275C 144.175,275.5 137.842,275.666 131.5,275.5C 131.5,268.5 131.5,261.5 131.5,254.5C 131.5,249.5 131.5,244.5 131.5,239.5C 131.5,228.833 131.5,218.167 131.5,207.5C 132.187,228.293 132.854,250.293 133.5,273.5 Z"/></g>
<g><path style="opacity:1" fill="#3686c2" d="M 282.5,256.5 C 279.434,265.139 274.601,266.473 268,260.5C 266.414,253.943 266.08,247.276 267,240.5C 267.278,239.584 267.778,238.918 268.5,238.5C 268.435,238.938 268.601,239.272 269,239.5C 274.624,235.924 278.624,237.257 281,243.5C 281.175,248.019 281.675,252.353 282.5,256.5 Z"/></g>
<g><path style="opacity:1" fill="#4a57a3" d="M 357.5,242.5 C 357.064,249.317 357.731,255.984 359.5,262.5C 358.662,262.842 358.328,263.508 358.5,264.5C 357.232,262.095 356.565,259.428 356.5,256.5C 356.181,251.637 356.514,246.97 357.5,242.5 Z"/></g>
<g><path style="opacity:1" fill="#4c84bf" d="M 439.5,267.5 C 438.566,268.568 438.232,269.901 438.5,271.5C 426.9,270.657 415.4,269.324 404,267.5C 402.549,269.464 400.716,270.797 398.5,271.5C 401.675,268.675 404.008,265.341 405.5,261.5C 405.369,262.239 405.536,262.906 406,263.5C 407.009,261.975 407.509,260.308 407.5,258.5C 417.858,257.747 428.191,256.747 438.5,255.5C 439.88,255.837 440.213,259.837 439.5,267.5 Z"/></g>
<g><path style="opacity:1" fill="#4e57a3" d="M 167.5,253.5 C 168.585,259.685 169.585,266.019 170.5,272.5C 169.833,272.5 169.5,272.833 169.5,273.5C 168.596,272.791 168.263,271.791 168.5,270.5C 167.942,265.484 167.275,260.484 166.5,255.5C 167.338,255.158 167.672,254.492 167.5,253.5 Z"/></g>
<g><path style="opacity:1" fill="#3f4196" d="M 247.5,243.5 C 247.334,247.514 247.501,251.514 248,255.5C 250.469,271.329 259.636,277.663 275.5,274.5C 258.129,279.617 248.462,272.951 246.5,254.5C 246.164,250.051 246.497,246.384 247.5,243.5 Z"/></g>
<g><path style="opacity:1" fill="#c2bcd9" d="M 281.5,269.5 C 281.56,268.957 281.893,268.624 282.5,268.5C 283.497,276.138 283.831,283.804 283.5,291.5C 282.833,284.167 282.167,276.833 281.5,269.5 Z"/></g>
<g><path style="opacity:1" fill="#555fa7" d="M 337.5,273.5 C 337.167,273.5 336.833,273.5 336.5,273.5C 335.778,273.082 335.278,272.416 335,271.5C 332.174,273.829 329.008,275.496 325.5,276.5C 323.167,275.833 320.833,275.167 318.5,274.5C 326.022,275.606 332.189,273.272 337,267.5C 337.495,269.473 337.662,271.473 337.5,273.5 Z"/></g>
<g><path style="opacity:1" fill="#393890" d="M 190.5,252.5 C 191.043,257.96 192.876,262.96 196,267.5C 209.325,277.484 223.158,278.15 237.5,269.5C 234.288,272.942 230.288,275.109 225.5,276C 212.628,279.215 201.795,276.049 193,266.5C 192.062,264.512 191.228,262.512 190.5,260.5C 189.343,257.693 189.343,255.026 190.5,252.5 Z"/></g>
<g><path style="opacity:1" fill="#5289c1" d="M 151.5,249.5 C 155.514,249.334 159.514,249.501 163.5,250C 165.16,251.488 166.16,253.321 166.5,255.5C 167.275,260.484 167.942,265.484 168.5,270.5C 167.596,271.209 167.263,272.209 167.5,273.5C 162.942,272.996 158.442,272.329 154,271.5C 153.365,272.966 152.531,274.3 151.5,275.5C 136.575,275.916 121.908,277.25 107.5,279.5C 103.364,278.365 99.6974,276.365 96.5,273.5C 96.3339,267.824 96.5006,262.157 97,256.5C 97.1816,259.226 97.6816,261.893 98.5,264.5C 99.6956,264.154 99.6956,263.654 98.5,263C 106.67,262.2 114.837,261.366 123,260.5C 124.981,260.371 126.647,259.704 128,258.5C 128.414,258.957 128.914,259.291 129.5,259.5C 130.17,257.709 130.837,256.042 131.5,254.5C 131.5,261.5 131.5,268.5 131.5,275.5C 137.842,275.666 144.175,275.5 150.5,275C 144.652,274.827 138.985,274.327 133.5,273.5C 139.5,273.5 145.5,273.5 151.5,273.5C 151.5,265.5 151.5,257.5 151.5,249.5 Z"/></g>
<g><path style="opacity:1" fill="#33338d" d="M 359.5,262.5 C 362.623,269.4 367.957,273.4 375.5,274.5C 379.5,275.167 383.5,275.833 387.5,276.5C 374.714,279.473 365.047,275.473 358.5,264.5C 358.328,263.508 358.662,262.842 359.5,262.5 Z"/></g>
<g><path style="opacity:1" fill="#363790" d="M 303.5,259.5 C 303.833,259.5 304.167,259.5 304.5,259.5C 305.078,268.409 309.745,273.409 318.5,274.5C 320.833,275.167 323.167,275.833 325.5,276.5C 314.099,278.725 306.766,274.392 303.5,263.5C 303.5,262.167 303.5,260.833 303.5,259.5 Z"/></g>
<g><path style="opacity:1" fill="#262485" d="M 336.5,273.5 C 336.833,273.5 337.167,273.5 337.5,273.5C 342.651,274.327 347.984,274.827 353.5,275C 347.843,275.499 342.176,275.666 336.5,275.5C 336.5,274.833 336.5,274.167 336.5,273.5 Z"/></g>
<g><path style="opacity:1" fill="#598fc4" d="M 354.5,248.5 C 355.167,251.167 355.833,253.833 356.5,256.5C 356.565,259.428 357.232,262.095 358.5,264.5C 365.047,275.473 374.714,279.473 387.5,276.5C 391.833,276.165 395.5,274.498 398.5,271.5C 400.716,270.797 402.549,269.464 404,267.5C 415.4,269.324 426.9,270.657 438.5,271.5C 438.232,269.901 438.566,268.568 439.5,267.5C 439.5,269.5 439.5,271.5 439.5,273.5C 432.014,278.777 423.681,282.11 414.5,283.5C 402.345,283.68 390.012,283.18 377.5,282C 377.957,281.586 378.291,281.086 378.5,280.5C 361.594,279.435 347.594,277.768 336.5,275.5C 342.176,275.666 347.843,275.499 353.5,275C 347.984,274.827 342.651,274.327 337.5,273.5C 343.167,273.5 348.833,273.5 354.5,273.5C 354.5,265.167 354.5,256.833 354.5,248.5 Z"/></g>
<g><path style="opacity:1" fill="#5858a3" d="M 398.5,271.5 C 395.5,274.498 391.833,276.165 387.5,276.5C 383.5,275.833 379.5,275.167 375.5,274.5C 383.401,275.056 391.068,274.056 398.5,271.5 Z"/></g>
<g><path style="opacity:1" fill="#5592c7" d="M 244.5,245.5 C 245.167,248.5 245.833,251.5 246.5,254.5C 248.462,272.951 258.129,279.617 275.5,274.5C 277.933,274.727 279.599,273.727 280.5,271.5C 281.482,274.962 281.815,278.629 281.5,282.5C 280.778,282.082 280.278,281.416 280,280.5C 251.573,280.745 223.073,280.912 194.5,281C 172.503,282.037 150.503,283.037 128.5,284C 129.056,284.383 129.389,284.883 129.5,285.5C 121.89,284.119 114.557,282.119 107.5,279.5C 121.908,277.25 136.575,275.916 151.5,275.5C 152.531,274.3 153.365,272.966 154,271.5C 158.442,272.329 162.942,272.996 167.5,273.5C 167.263,272.209 167.596,271.209 168.5,270.5C 168.263,271.791 168.596,272.791 169.5,273.5C 172.428,274.82 175.761,275.486 179.5,275.5C 182.833,275.333 186.167,275.167 189.5,275C 182.987,274.828 176.653,274.328 170.5,273.5C 177.167,273.5 183.833,273.5 190.5,273.5C 189.963,268.814 189.296,264.147 188.5,259.5C 189.167,259.833 189.833,260.167 190.5,260.5C 191.228,262.512 192.062,264.512 193,266.5C 201.795,276.049 212.628,279.215 225.5,276C 230.288,275.109 234.288,272.942 237.5,269.5C 243.454,262.63 245.787,254.63 244.5,245.5 Z"/></g>
<g><path style="opacity:1" fill="#252384" d="M 170.5,272.5 C 170.5,272.833 170.5,273.167 170.5,273.5C 176.653,274.328 182.987,274.828 189.5,275C 186.167,275.167 182.833,275.333 179.5,275.5C 175.761,275.486 172.428,274.82 169.5,273.5C 169.5,272.833 169.833,272.5 170.5,272.5 Z"/></g>
<g><path style="opacity:1" fill="#3e499b" d="M 280.5,271.5 C 279.599,273.727 277.933,274.727 275.5,274.5C 276.899,273.11 278.566,272.11 280.5,271.5 Z"/></g>
<g><path style="opacity:1" fill="#384598" d="M 281.5,269.5 C 282.167,276.833 282.833,284.167 283.5,291.5C 288.833,292.167 294.167,292.833 299.5,293.5C 293.5,293.5 287.5,293.5 281.5,293.5C 281.5,289.833 281.5,286.167 281.5,282.5C 281.815,278.629 281.482,274.962 280.5,271.5C 280.833,270.833 281.167,270.167 281.5,269.5 Z"/></g>
<g><path style="opacity:1" fill="#5f99ca" d="M 281.5,282.5 C 281.5,286.167 281.5,289.833 281.5,293.5C 244.599,294.868 207.599,293.868 170.5,290.5C 156.751,289.488 143.084,287.821 129.5,285.5C 129.389,284.883 129.056,284.383 128.5,284C 150.503,283.037 172.503,282.037 194.5,281C 223.073,280.912 251.573,280.745 280,280.5C 280.278,281.416 280.778,282.082 281.5,282.5 Z"/></g>
<g><path style="opacity:1" fill="#5e97c9" d="M 303.5,263.5 C 306.766,274.392 314.099,278.725 325.5,276.5C 329.008,275.496 332.174,273.829 335,271.5C 335.278,272.416 335.778,273.082 336.5,273.5C 336.5,274.167 336.5,274.833 336.5,275.5C 347.594,277.768 361.594,279.435 378.5,280.5C 378.291,281.086 377.957,281.586 377.5,282C 390.012,283.18 402.345,283.68 414.5,283.5C 402.657,286.276 390.657,288.276 378.5,289.5C 352.208,291.622 325.874,292.956 299.5,293.5C 294.167,292.833 288.833,292.167 283.5,291.5C 289.167,291.5 294.833,291.5 300.5,291.5C 300.5,284.167 300.5,276.833 300.5,269.5C 302.06,267.844 303.06,265.844 303.5,263.5 Z"/></g>
<g><path style="opacity:1" fill="#1868b1" d="M 378.5,289.5 C 380.292,290.309 382.292,290.809 384.5,291C 378.435,297.577 370.768,300.577 361.5,300C 363.473,300.495 365.473,300.662 367.5,300.5C 358.035,301.919 348.368,302.753 338.5,303C 296.509,304.449 254.509,304.782 212.5,304C 193.309,302.973 174.309,301.473 155.5,299.5C 158.187,299.664 160.854,299.497 163.5,299C 159.005,297.189 155.005,294.522 151.5,291C 157.993,291.473 164.326,291.307 170.5,290.5C 207.599,293.868 244.599,294.868 281.5,293.5C 287.5,293.5 293.5,293.5 299.5,293.5C 325.874,292.956 352.208,291.622 378.5,289.5 Z"/></g>
</svg>
